# Blender v2.78 (sub 0) OBJ File: 'wall.blend'
# www.blender.org
mtllib wall.mtl
o Wall_Cube.001
v 3.638795 2.199517 -0.134919
v 3.638795 2.199517 0.166105
v 3.638795 0.219518 0.166105
v 3.638795 0.219518 -0.134920
v -0.013896 2.199517 0.166105
v -0.013896 0.219518 0.166105
v -0.013896 2.199517 -0.134919
v -0.013896 0.219518 -0.134920
vt 0.0325 0.7104
vt 0.0001 0.7104
vt 0.0001 0.4956
vt 0.0325 0.4956
vt -0.4409 0.0258
vt 1.3319 0.0258
vt 1.3319 0.5112
vt -0.4409 0.5112
vt 0.9999 0.4304
vt 0.9999 0.4627
vt 0.7850 0.4627
vt 0.7850 0.4304
vt 1.3319 0.9971
vt -0.4409 0.9971
vt -0.4409 0.5117
vt 1.3319 0.5117
vt 0.0001 0.4627
vt 0.0001 0.4304
vt 0.7850 0.4630
vt 0.7850 0.4953
vt 0.0001 0.4953
vt 0.0001 0.4630
vn 1.0000 0.0000 0.0000
vn 0.0000 -0.0000 1.0000
vn -1.0000 0.0000 0.0000
vn 0.0000 0.0000 -1.0000
vn 0.0000 -1.0000 -0.0000
vn 0.0000 1.0000 0.0000
usemtl WallMaterial
s 1
f 1/1/1 2/2/1 3/3/1 4/4/1
f 2/5/2 5/6/2 6/7/2 3/8/2
f 5/9/3 7/10/3 8/11/3 6/12/3
f 7/13/4 1/14/4 4/15/4 8/16/4
f 4/17/5 3/18/5 6/12/5 8/11/5
f 7/19/6 5/20/6 2/21/6 1/22/6
